<?xml version="1.0" encoding="UTF-8" standalone="no"?>
<!-- Created with Inkscape (http://www.inkscape.org/) -->

<svg
   version="1.1"
   id="svg1"
   width="3768.28"
   height="2103.8267"
   viewBox="0 0 3768.28 2103.8267"
   sodipodi:docname="LOGO HOOK.eps"
   xmlns:inkscape="http://www.inkscape.org/namespaces/inkscape"
   xmlns:sodipodi="http://sodipodi.sourceforge.net/DTD/sodipodi-0.dtd"
   xmlns="http://www.w3.org/2000/svg"
   xmlns:svg="http://www.w3.org/2000/svg">
  <defs
     id="defs1" />
  <sodipodi:namedview
     id="namedview1"
     pagecolor="#ffffff"
     bordercolor="#000000"
     borderopacity="0.25"
     inkscape:showpageshadow="2"
     inkscape:pageopacity="0.0"
     inkscape:pagecheckerboard="0"
     inkscape:deskcolor="#d1d1d1">
    <inkscape:page
       x="0"
       y="0"
       inkscape:label="1"
       id="page1"
       width="3768.28"
       height="2103.8267"
       margin="0"
       bleed="0" />
  </sodipodi:namedview>
  <g
     id="g1"
     inkscape:groupmode="layer"
     inkscape:label="1">
    <g
       id="group-R5">
      <path
         id="path2"
         d="m 1138.26,12369.9 v -24.3 c -88.44,-1137.4 -735.869,-929.7 -775.776,-915.7 v 940 H 8.09766 V 10336.5 H 362.484 v 27.4 c 89.375,1136.5 738.026,926.3 775.776,913 v -940.4 h 354.39 v 2033.4 h -354.39"
         style="fill:#0a131c;fill-opacity:1;fill-rule:nonzero;stroke:none"
         transform="matrix(0.13333333,0,0,-0.13333333,0,2103.8267)" />
      <path
         id="path3"
         d="m 8062.11,10336.5 -883.06,1159.1 845.3,874.3 h -438.62 l -962.08,-1017 h -5.23 v 1017 h -354.38 v -2033.4 h 354.38 v 27 c 41.59,538.1 185.34,774.2 328.54,872.4 l 682.34,-899.4 h 432.81"
         style="fill:#0a131c;fill-opacity:1;fill-rule:nonzero;stroke:none"
         transform="matrix(0.13333333,0,0,-0.13333333,0,2103.8267)" />
      <path
         id="path4"
         d="m 3386.07,11619.2 c -32.73,85 -78.5,159.3 -137.38,222.9 -58.88,63.5 -129.45,113.9 -211.67,151.3 -82.27,37.4 -171.98,56.1 -269.14,56.1 -97.21,0 -186.44,-18.2 -267.74,-54.7 -81.31,-36.4 -150.96,-85.9 -208.87,-148.5 -57.96,-62.7 -103.3,-136.5 -135.97,-221.5 -32.73,-85.1 -49.07,-175.2 -49.07,-270.6 0,-95.3 16.34,-185.5 49.07,-270.5 32.67,-85.1 78.5,-159.4 137.37,-222.9 58.88,-63.6 129.4,-114 211.67,-151.4 82.23,-37.4 171.94,-56.1 269.15,-56.1 97.16,0 186.43,18.3 267.74,54.7 81.3,36.4 150.91,85.9 208.86,148.6 57.91,62.6 103.25,136.4 135.98,221.5 32.67,85 49.06,175.2 49.06,270.5 0,95.3 -16.39,185.5 -49.06,270.6 z m 335.02,-657.5 c -50.46,-123.3 -121.51,-231.3 -213.07,-323.8 -91.6,-92.5 -200.02,-165.9 -325.21,-220.1 -125.24,-54.2 -263.54,-81.3 -414.93,-81.3 -151.4,0 -289.74,26.7 -414.93,79.9 -125.24,53.3 -232.7,125.7 -322.41,217.3 -89.72,91.6 -159.81,199.1 -210.27,322.4 -50.47,123.4 -75.7,254.2 -75.7,392.5 0,138.3 25.23,269.2 75.7,392.5 50.46,123.4 121.47,231.3 213.07,323.8 91.55,92.5 199.97,165.9 325.22,220.1 125.19,54.2 263.53,81.3 414.93,81.3 151.39,0 289.68,-26.6 414.92,-79.9 125.2,-53.2 232.7,-125.7 322.41,-217.3 89.72,-91.6 159.81,-199 210.27,-322.4 50.47,-123.3 75.7,-254.2 75.7,-392.5 0,-138.3 -25.23,-269.1 -75.7,-392.5"
         style="fill:#0a131c;fill-opacity:1;fill-rule:nonzero;stroke:none"
         transform="matrix(0.13333333,0,0,-0.13333333,0,2103.8267)" />
      <path
         id="path5"
         d="m 5601.39,11619.2 c -32.73,85 -78.5,159.3 -137.38,222.9 -58.87,63.5 -129.44,113.9 -211.67,151.3 -82.27,37.4 -171.98,56.1 -269.14,56.1 -97.21,0 -186.44,-18.2 -267.74,-54.7 -81.31,-36.4 -150.96,-85.9 -208.87,-148.5 -57.95,-62.7 -103.29,-136.5 -135.97,-221.5 -32.73,-85.1 -49.06,-175.2 -49.06,-270.6 0,-95.3 16.33,-185.5 49.06,-270.5 32.68,-85.1 78.5,-159.4 137.37,-222.9 58.88,-63.6 129.41,-114 211.67,-151.4 82.23,-37.4 171.94,-56.1 269.15,-56.1 97.16,0 186.43,18.3 267.74,54.7 81.3,36.4 150.91,85.9 208.86,148.6 57.92,62.6 103.25,136.4 135.98,221.5 32.68,85 49.06,175.2 49.06,270.5 0,95.3 -16.38,185.5 -49.06,270.6 z m 335.03,-657.5 c -50.47,-123.3 -121.52,-231.3 -213.08,-323.8 -91.6,-92.5 -200.01,-165.9 -325.21,-220.1 -125.24,-54.2 -263.54,-81.3 -414.93,-81.3 -151.39,0 -289.73,26.7 -414.93,79.9 -125.24,53.3 -232.7,125.7 -322.41,217.3 -89.72,91.6 -159.8,199.1 -210.27,322.4 -50.46,123.4 -75.7,254.2 -75.7,392.5 0,138.3 25.24,269.2 75.7,392.5 50.47,123.4 121.47,231.3 213.07,323.8 91.56,92.5 199.98,165.9 325.22,220.1 125.2,54.2 263.53,81.3 414.93,81.3 151.39,0 289.68,-26.6 414.93,-79.9 125.19,-53.2 232.69,-125.7 322.41,-217.3 89.71,-91.6 159.8,-199 210.27,-322.4 50.46,-123.3 75.69,-254.2 75.69,-392.5 0,-138.3 -25.23,-269.1 -75.69,-392.5"
         style="fill:#0a131c;fill-opacity:1;fill-rule:nonzero;stroke:none"
         transform="matrix(0.13333333,0,0,-0.13333333,0,2103.8267)" />
      <path
         id="path6"
         d="m 5450.02,14541.2 c 25.74,-89 32.73,-175.7 20.88,-259.8 -11.88,-84.2 -38.76,-161.1 -80.84,-230.8 -0.34,-0.5 -0.67,-1.1 -1.06,-1.7 -55.33,-91.1 -179.27,-110.8 -261.2,-42.7 l -137.25,114.1 c 25.85,-85.8 51.14,-199.9 57.43,-335.7 7.46,-160.5 -14.26,-295 -37.59,-391.4 108.5,33.4 224.33,93.4 318.88,149.4 123.14,72.8 227.75,172.9 307.69,291.6 0.8,1.3 1.62,2.5 2.44,3.6 -0.21,0.2 -0.47,0.3 -0.65,0.5 6.9,11.1 13.59,22.4 19.97,34 60.51,108.4 99.06,227.1 115.52,356.2 16.47,129.1 4.67,263 -35.42,401.7 -14.07,48.7 -30.76,94.9 -49.97,138.8 -77.54,-53.6 -163.86,-113.3 -255.71,-176.9 6.2,-16.5 11.84,-33.5 16.88,-50.9"
         style="fill:#0a131c;fill-opacity:1;fill-rule:nonzero;stroke:none"
         transform="matrix(0.13333333,0,0,-0.13333333,0,2103.8267)" />
      <path
         id="path7"
         d="m 2142.95,13266.2 c -86.66,-60.1 -205.54,-38.5 -265.6,48.1 -60.01,86.7 -38.38,205.6 48.24,265.6 86.63,60 205.54,38.4 265.56,-48.2 60.02,-86.6 38.43,-205.6 -48.2,-265.5 z m 2777.16,2068.1 c -126.41,13.5 -252.9,2 -379.63,-34.6 -83.14,-24 -160.47,-57.2 -231.94,-99.4 -18.15,-10.7 -515.62,-354.1 -1023.86,-705.4 -34.65,-24 -69.35,-47.9 -103.97,-71.9 -124.97,-86.4 -248.61,-171.9 -364,-251.7 -39.51,-27.3 -78.01,-53.9 -115.31,-79.7 -94.36,-65.3 -180.66,-125 -254.5,-176.1 -42.99,-29.7 -81.78,-56.6 -115.35,-79.8 -44.2,-30.6 -79.5,-55 -103.78,-71.8 -126.76,71.9 -288.83,69.8 -416.64,-18.7 -177.98,-123.3 -222.29,-367.4 -99.05,-545.4 123.29,-177.9 367.41,-222.2 545.38,-99 127.05,88.1 185.99,237.8 164.36,381 30,20.8 77,53.4 136.94,95 35.78,24.8 76.13,52.8 120.24,83.4 86.46,59.9 187.35,129.9 296.33,205.4 47.08,32.6 95.68,66.3 145.28,100.7 591.1,409.8 1324.87,918.2 1337.65,925.8 53.01,31.9 110.63,56.8 172.85,74.7 87.34,25.3 174.29,34.2 260.91,26.8 8.17,-0.8 16.27,-1.6 24.36,-2.6 124.33,86.2 242.4,168.1 346.65,240.4 -105.45,55.3 -219.72,89.7 -342.92,102.9"
         style="fill:#0a131c;fill-opacity:1;fill-rule:nonzero;stroke:none"
         transform="matrix(0.13333333,0,0,-0.13333333,0,2103.8267)" />
      <path
         id="path8"
         d="m 6144.62,15229.9 c -86.62,-60 -205.52,-38.5 -265.55,48.2 -60.02,86.6 -38.41,205.5 48.21,265.5 86.65,60 205.55,38.5 265.58,-48.2 60.02,-86.6 38.41,-205.5 -48.24,-265.5 z m 213.51,380 c -123.25,177.9 -367.41,222.3 -545.36,99 -127.07,-88 -186.01,-237.7 -164.35,-380.9 -26.32,-18.3 -65.68,-45.6 -115.36,-80 h 0.03 l -580.49,-402.5 h -0.03 c -591.61,-410.1 -1327.81,-920.2 -1340.6,-927.9 -53.03,-31.8 -110.64,-56.7 -172.87,-74.7 -87.32,-25.2 -174.28,-34.2 -260.89,-26.7 -8.18,0.7 -16.28,1.6 -24.33,2.5 l -150.06,-104 -196.62,-136.3 c 105.42,-55.4 219.7,-89.7 342.92,-103 126.4,-13.5 252.91,-2 379.64,34.7 83.14,24 160.44,57.1 231.92,99.4 34.5,20.3 1798.58,1241.1 2080.78,1436.4 126.77,-71.9 288.82,-69.9 416.64,18.7 177.96,123.3 222.27,367.4 99.03,545.3"
         style="fill:#0a131c;fill-opacity:1;fill-rule:nonzero;stroke:none"
         transform="matrix(0.13333333,0,0,-0.13333333,0,2103.8267)" />
      <path
         id="path9"
         d="m 2637.1,14217.6 c -6.21,16.6 -11.85,33.5 -16.9,51 -25.73,89 -32.72,175.6 -20.88,259.8 11.89,84.2 38.77,161 80.85,230.7 0.33,0.6 0.67,1.2 1.06,1.7 55.32,91.1 179.27,110.9 261.2,42.7 l 137.25,-114.1 c -25.85,85.9 -51.15,200 -57.43,335.7 -7.47,160.5 14.25,295.1 37.59,391.4 -108.51,-33.3 -224.33,-93.4 -318.88,-149.3 -123.14,-72.9 -227.75,-173 -307.69,-291.7 -0.8,-1.2 -1.63,-2.4 -2.44,-3.6 0.2,-0.1 0.46,-0.3 0.64,-0.4 -6.89,-11.2 -13.58,-22.5 -19.96,-34 -60.51,-108.4 -99.06,-227.2 -115.52,-356.2 -16.47,-129.2 -4.67,-263.1 35.42,-401.8 14.07,-48.6 30.76,-94.8 49.97,-138.8 l 240.24,166.2 c 5.13,3.6 10.31,7.2 15.48,10.7"
         style="fill:#0a131c;fill-opacity:1;fill-rule:nonzero;stroke:none"
         transform="matrix(0.13333333,0,0,-0.13333333,0,2103.8267)" />
      <path
         id="path10"
         d="m 4952.6,14845.5 580.49,402.5 h -0.03 c -135.03,-93.7 -346.44,-240.3 -580.49,-402.5 h 0.03"
         style="fill:#0a131c;fill-opacity:1;fill-rule:nonzero;stroke:none"
         transform="matrix(0.13333333,0,0,-0.13333333,0,2103.8267)" />
      <text
         id="text10"
         xml:space="preserve"
         transform="matrix(1.3333333,0,0,1.3333333,0,892.54)"><tspan
           id="tspan10"
           style="font-variant:normal;font-weight:normal;font-size:68.3984px;font-family:Gotham-Book;writing-mode:lr-tb;fill:#0a131c;fill-opacity:1;fill-rule:nonzero;stroke:none"
           x="0"
           dx="0 -0.68412077 0 0 0 0 0 0 0 0 0 -1.0261743 0 0 0 0 -0.68452436 0 -0.34145507"
           y="0">Comodidad con estatus</tspan></text>
      <path
         id="path11"
         d="m 21338.3,11686.2 v -24.4 c -88.5,-1137.3 -735.9,-929.6 -775.8,-915.7 v 940.1 h -354.4 V 9652.79 h 354.4 v 27.33 c 89.4,1136.58 738,926.28 775.8,913.08 v -940.41 h 354.3 v 2033.41 h -354.3"
         style="fill:#0a131c;fill-opacity:1;fill-rule:nonzero;stroke:none"
         transform="matrix(0.13333333,0,0,-0.13333333,0,2103.8267)" />
      <path
         id="path12"
         d="m 28262.1,9652.79 -883,1159.01 845.3,874.4 h -438.7 l -962.1,-1017 h -5.2 v 1017 H 26464 V 9652.79 h 354.4 v 26.97 c 41.6,538.14 185.4,774.24 328.6,872.34 l 682.3,-899.31 h 432.8"
         style="fill:#0a131c;fill-opacity:1;fill-rule:nonzero;stroke:none"
         transform="matrix(0.13333333,0,0,-0.13333333,0,2103.8267)" />
      <path
         id="path13"
         d="m 23586.1,10935.4 c -32.8,85 -78.5,159.4 -137.4,222.9 -58.9,63.5 -129.5,114 -211.7,151.4 -82.2,37.4 -172,56.1 -269.1,56.1 -97.2,0 -186.5,-18.2 -267.8,-54.7 -81.3,-36.4 -150.9,-86 -208.8,-148.6 -58,-62.6 -103.3,-136.4 -136,-221.5 -32.7,-85 -49.1,-175.2 -49.1,-270.5 0,-95.3 16.4,-185.5 49.1,-270.6 32.7,-85 78.5,-159.3 137.4,-222.8 58.8,-63.6 129.4,-114.1 211.6,-151.4 82.3,-37.44 172,-56.1 269.2,-56.1 97.1,0 186.4,18.22 267.7,54.7 81.3,36.4 150.9,85.9 208.9,148.6 57.9,62.5 103.2,136.4 136,221.4 32.6,85.1 49,175.3 49,270.6 0,95.3 -16.4,185.5 -49,270.5 z m 335,-657.4 c -50.5,-123.4 -121.5,-231.3 -213.1,-323.82 -91.6,-92.52 -200,-165.9 -325.2,-220.08 -125.2,-54.19 -263.5,-81.31 -414.9,-81.31 -151.4,0 -289.8,26.64 -414.9,79.9 -125.3,53.27 -232.7,125.68 -322.5,217.28 -89.7,91.53 -159.8,199.03 -210.2,322.43 -50.5,123.3 -75.7,254.1 -75.7,392.5 0,138.3 25.2,269.1 75.7,392.5 50.4,123.3 121.4,231.3 213,323.8 91.6,92.5 200,165.8 325.3,220.1 125.2,54.2 263.5,81.3 414.9,81.3 151.4,0 289.7,-26.7 414.9,-79.9 125.2,-53.3 232.7,-125.8 322.4,-217.3 89.7,-91.6 159.8,-199 210.3,-322.4 50.5,-123.4 75.7,-254.2 75.7,-392.5 0,-138.3 -25.2,-269.1 -75.7,-392.5"
         style="fill:#0a131c;fill-opacity:1;fill-rule:nonzero;stroke:none"
         transform="matrix(0.13333333,0,0,-0.13333333,0,2103.8267)" />
      <path
         id="path14"
         d="m 25801.4,10935.4 c -32.7,85 -78.5,159.4 -137.4,222.9 -58.9,63.5 -129.4,114 -211.7,151.4 -82.2,37.4 -171.9,56.1 -269.1,56.1 -97.2,0 -186.4,-18.2 -267.7,-54.7 -81.3,-36.4 -151,-86 -208.9,-148.6 -58,-62.6 -103.3,-136.4 -136,-221.5 -32.7,-85 -49,-175.2 -49,-270.5 0,-95.3 16.3,-185.5 49,-270.6 32.7,-85 78.5,-159.3 137.4,-222.8 58.9,-63.6 129.4,-114.1 211.7,-151.4 82.2,-37.44 171.9,-56.1 269.1,-56.1 97.2,0 186.4,18.22 267.7,54.7 81.4,36.4 151,85.9 208.9,148.6 57.9,62.5 103.3,136.4 136,221.4 32.7,85.1 49.1,175.3 49.1,270.6 0,95.3 -16.4,185.5 -49.1,270.5 z m 335,-657.4 c -50.4,-123.4 -121.5,-231.3 -213.1,-323.82 -91.6,-92.52 -200,-165.9 -325.2,-220.08 -125.2,-54.19 -263.5,-81.31 -414.9,-81.31 -151.4,0 -289.7,26.64 -414.9,79.9 -125.3,53.27 -232.7,125.68 -322.4,217.28 -89.8,91.53 -159.8,199.03 -210.3,322.43 -50.5,123.3 -75.7,254.1 -75.7,392.5 0,138.3 25.2,269.1 75.7,392.5 50.5,123.3 121.5,231.3 213.1,323.8 91.5,92.5 199.9,165.8 325.2,220.1 125.2,54.2 263.5,81.3 414.9,81.3 151.4,0 289.7,-26.7 414.9,-79.9 125.2,-53.3 232.7,-125.8 322.4,-217.3 89.8,-91.6 159.9,-199 210.3,-322.4 50.5,-123.4 75.7,-254.2 75.7,-392.5 0,-138.3 -25.2,-269.1 -75.7,-392.5"
         style="fill:#0a131c;fill-opacity:1;fill-rule:nonzero;stroke:none"
         transform="matrix(0.13333333,0,0,-0.13333333,0,2103.8267)" />
      <path
         id="path15"
         d="m 25650,13857.4 c 25.8,-89 32.8,-175.6 20.9,-259.8 -11.9,-84.1 -38.8,-161 -80.8,-230.7 -0.4,-0.6 -0.7,-1.1 -1.1,-1.7 -55.3,-91.1 -179.3,-110.9 -261.2,-42.7 l -137.2,114.1 c 25.8,-85.9 51.1,-200 57.4,-335.7 7.4,-160.5 -14.3,-295.1 -37.6,-391.4 108.5,33.3 224.3,93.4 318.9,149.3 123.1,72.9 227.7,173 307.7,291.7 0.8,1.2 1.6,2.4 2.4,3.6 -0.2,0.1 -0.5,0.3 -0.6,0.4 6.9,11.2 13.5,22.5 19.9,34 60.5,108.4 99.1,227.2 115.5,356.3 16.5,129.1 4.7,263 -35.4,401.7 -14.1,48.6 -30.7,94.9 -49.9,138.8 -77.6,-53.6 -163.9,-113.4 -255.8,-176.9 6.2,-16.6 11.9,-33.5 16.9,-51"
         style="fill:#0a131c;fill-opacity:1;fill-rule:nonzero;stroke:none"
         transform="matrix(0.13333333,0,0,-0.13333333,0,2103.8267)" />
      <path
         id="path16"
         d="m 22343,12582.4 c -86.7,-60 -205.6,-38.5 -265.6,48.2 -60.1,86.6 -38.4,205.5 48.2,265.6 86.6,60 205.5,38.4 265.6,-48.3 60,-86.6 38.4,-205.5 -48.2,-265.5 z m 2777.1,2068.2 c -126.4,13.5 -252.9,2 -379.6,-34.7 -83.2,-24 -160.5,-57.1 -232,-99.4 -18.1,-10.7 -515.6,-354 -1023.8,-705.3 -34.7,-24 -69.4,-47.9 -104,-71.9 -125,-86.4 -248.6,-171.9 -364,-251.7 -39.5,-27.3 -78,-54 -115.3,-79.7 -94.4,-65.3 -180.7,-125 -254.5,-176.1 -43,-29.8 -81.8,-56.6 -115.4,-79.8 -44.1,-30.6 -79.4,-55.1 -103.7,-71.9 -126.8,71.9 -288.9,69.9 -416.7,-18.7 -177.9,-123.2 -222.3,-367.4 -99,-545.3 123.3,-177.9 367.4,-222.3 545.4,-99 127,88 186,237.8 164.3,381 30,20.8 77,53.4 137,95 35.7,24.8 76.1,52.7 120.2,83.3 86.5,60 187.4,129.9 296.3,205.5 47.1,32.6 95.7,66.3 145.3,100.7 591.1,409.7 1324.9,918.2 1337.7,925.8 53,31.9 110.6,56.7 172.8,74.7 87.4,25.3 174.3,34.2 260.9,26.7 8.2,-0.7 16.3,-1.6 24.4,-2.5 124.3,86.1 242.4,168.1 346.6,240.3 -105.4,55.4 -219.7,89.7 -342.9,103"
         style="fill:#0a131c;fill-opacity:1;fill-rule:nonzero;stroke:none"
         transform="matrix(0.13333333,0,0,-0.13333333,0,2103.8267)" />
      <path
         id="path17"
         d="m 26344.6,14546.1 c -86.6,-60 -205.5,-38.4 -265.5,48.2 -60.1,86.7 -38.4,205.6 48.2,265.6 86.6,60 205.5,38.4 265.6,-48.2 60,-86.7 38.4,-205.5 -48.3,-265.6 z m 213.5,380.1 c -123.2,177.9 -367.4,222.2 -545.3,99 -127.1,-88 -186,-237.8 -164.4,-381 -26.3,-18.2 -65.7,-45.5 -115.3,-80 v 0 l -580.5,-402.5 v 0 c -591.6,-410.1 -1327.8,-920.2 -1340.6,-927.8 -53.1,-31.9 -110.7,-56.7 -172.9,-74.7 -87.3,-25.3 -174.3,-34.2 -260.9,-26.7 -8.2,0.7 -16.3,1.5 -24.3,2.5 l -150.1,-104 -196.6,-136.3 c 105.4,-55.4 219.7,-89.8 342.9,-103 126.4,-13.5 252.9,-2 379.7,34.6 83.1,24.1 160.4,57.2 231.9,99.4 34.5,20.4 1798.6,1241.1 2080.8,1436.5 126.7,-71.9 288.8,-69.9 416.6,18.7 178,123.2 222.3,367.4 99,545.3"
         style="fill:#0a131c;fill-opacity:1;fill-rule:nonzero;stroke:none"
         transform="matrix(0.13333333,0,0,-0.13333333,0,2103.8267)" />
      <path
         id="path18"
         d="m 22837.1,13533.9 c -6.2,16.5 -11.9,33.5 -16.9,50.9 -25.7,89.1 -32.7,175.7 -20.9,259.8 11.9,84.2 38.8,161.1 80.9,230.8 0.3,0.5 0.6,1.1 1,1.7 55.4,91.1 179.3,110.9 261.2,42.7 l 137.3,-114.1 c -25.9,85.8 -51.2,200 -57.5,335.7 -7.4,160.5 14.3,295 37.6,391.4 -108.5,-33.4 -224.3,-93.4 -318.8,-149.4 -123.2,-72.8 -227.8,-172.9 -307.7,-291.6 -0.8,-1.2 -1.7,-2.5 -2.5,-3.6 0.2,-0.2 0.5,-0.3 0.7,-0.4 -6.9,-11.2 -13.6,-22.5 -20,-34 -60.5,-108.4 -99,-227.2 -115.5,-356.3 -16.5,-129.1 -4.7,-263 35.4,-401.7 14.1,-48.7 30.8,-94.9 50,-138.8 l 240.2,166.2 c 5.2,3.5 10.3,7.1 15.5,10.7"
         style="fill:#0a131c;fill-opacity:1;fill-rule:nonzero;stroke:none"
         transform="matrix(0.13333333,0,0,-0.13333333,0,2103.8267)" />
      <path
         id="path19"
         d="m 25152.6,14161.7 580.5,402.5 v 0 c -135.1,-93.6 -346.5,-240.2 -580.5,-402.5 v 0"
         style="fill:#0a131c;fill-opacity:1;fill-rule:nonzero;stroke:none"
         transform="matrix(0.13333333,0,0,-0.13333333,0,2103.8267)" />
      <path
         id="path20"
         d="m 1138.26,2390.6 v -24.4 C 1049.82,1228.9 402.391,1436.6 362.484,1450.5 v 940.1 H 8.09766 V 357.199 H 362.484 V 384.5 c 89.375,1136.5 738.026,926.3 775.776,913.1 V 357.199 h 354.39 V 2390.6 h -354.39"
         style="fill:#0a131c;fill-opacity:1;fill-rule:nonzero;stroke:none"
         transform="matrix(0.13333333,0,0,-0.13333333,0,2103.8267)" />
      <path
         id="path21"
         d="m 8062.11,357.199 -883.06,1159.001 845.3,874.4 h -438.62 l -962.08,-1017 h -5.23 v 1017 H 6264.04 V 357.199 h 354.38 v 27 c 41.59,538.102 185.34,774.201 328.54,872.301 L 7629.3,357.199 h 432.81"
         style="fill:#0a131c;fill-opacity:1;fill-rule:nonzero;stroke:none"
         transform="matrix(0.13333333,0,0,-0.13333333,0,2103.8267)" />
      <path
         id="path22"
         d="m 3386.07,1639.8 c -32.73,85.1 -78.5,159.4 -137.38,222.9 -58.88,63.5 -129.45,114 -211.67,151.4 -82.27,37.4 -171.98,56.1 -269.14,56.1 -97.21,0 -186.44,-18.2 -267.74,-54.7 -81.31,-36.4 -150.96,-86 -208.87,-148.6 -57.96,-62.6 -103.3,-136.4 -135.97,-221.5 -32.73,-85 -49.07,-175.2 -49.07,-270.5 0,-95.3 16.34,-185.5 49.07,-270.6 32.67,-85 78.5,-159.3 137.37,-222.8 58.88,-63.598 129.4,-114.098 211.67,-151.398 82.23,-37.403 171.94,-56.102 269.15,-56.102 97.16,0 186.43,18.199 267.74,54.699 81.3,36.403 150.91,85.903 208.86,148.602 57.91,62.601 103.25,136.399 135.98,221.399 32.67,85.1 49.06,175.3 49.06,270.6 0,95.3 -16.39,185.5 -49.06,270.5 z M 3721.09,982.402 C 3670.63,859 3599.58,751.102 3508.02,658.602 3416.42,566.102 3308,492.699 3182.81,438.5 c -125.24,-54.199 -263.54,-81.301 -414.93,-81.301 -151.4,0 -289.74,26.602 -414.93,79.903 -125.24,53.3 -232.7,125.699 -322.41,217.296 -89.72,91.5 -159.81,199 -210.27,322.403 -50.47,123.299 -75.7,254.099 -75.7,392.499 0,138.3 25.23,269.1 75.7,392.5 50.46,123.3 121.47,231.3 213.07,323.8 91.55,92.5 199.97,165.8 325.22,220.1 125.19,54.2 263.53,81.3 414.93,81.3 151.39,0 289.68,-26.7 414.92,-79.9 125.2,-53.3 232.7,-125.7 322.41,-217.3 89.72,-91.6 159.81,-199.1 210.27,-322.4 50.47,-123.4 75.7,-254.2 75.7,-392.5 0,-138.3 -25.23,-269.2 -75.7,-392.498"
         style="fill:#0a131c;fill-opacity:1;fill-rule:nonzero;stroke:none"
         transform="matrix(0.13333333,0,0,-0.13333333,0,2103.8267)" />
      <path
         id="path23"
         d="m 5601.39,1639.8 c -32.73,85.1 -78.5,159.4 -137.38,222.9 -58.87,63.5 -129.44,114 -211.67,151.4 -82.27,37.4 -171.98,56.1 -269.14,56.1 -97.21,0 -186.44,-18.2 -267.74,-54.7 -81.31,-36.4 -150.96,-86 -208.87,-148.6 -57.95,-62.6 -103.29,-136.4 -135.97,-221.5 -32.73,-85 -49.06,-175.2 -49.06,-270.5 0,-95.3 16.33,-185.5 49.06,-270.6 32.68,-85 78.5,-159.3 137.37,-222.8 58.88,-63.598 129.41,-114.098 211.67,-151.398 C 4801.89,692.699 4891.6,674 4988.81,674 c 97.16,0 186.43,18.199 267.74,54.699 81.3,36.403 150.91,85.903 208.86,148.602 57.92,62.601 103.25,136.399 135.98,221.399 32.68,85.1 49.06,175.3 49.06,270.6 0,95.3 -16.38,185.5 -49.06,270.5 z M 5936.42,982.402 C 5885.95,859 5814.9,751.102 5723.34,658.602 5631.74,566.102 5523.33,492.699 5398.13,438.5 5272.89,384.301 5134.59,357.199 4983.2,357.199 c -151.39,0 -289.73,26.602 -414.93,79.903 -125.24,53.3 -232.7,125.699 -322.41,217.296 -89.72,91.5 -159.8,199 -210.27,322.403 -50.46,123.299 -75.7,254.099 -75.7,392.499 0,138.3 25.24,269.1 75.7,392.5 50.47,123.3 121.47,231.3 213.07,323.8 91.56,92.5 199.98,165.8 325.22,220.1 125.2,54.2 263.53,81.3 414.93,81.3 151.39,0 289.68,-26.7 414.93,-79.9 125.19,-53.3 232.69,-125.7 322.41,-217.3 89.71,-91.6 159.8,-199.1 210.27,-322.4 50.46,-123.4 75.69,-254.2 75.69,-392.5 0,-138.3 -25.23,-269.2 -75.69,-392.498"
         style="fill:#0a131c;fill-opacity:1;fill-rule:nonzero;stroke:none"
         transform="matrix(0.13333333,0,0,-0.13333333,0,2103.8267)" />
      <path
         id="path24"
         d="m 25650,1510.2 c 25.8,-89 32.8,-175.7 20.9,-259.8 -11.9,-84.2 -38.8,-161.1 -80.8,-230.8 -0.4,-0.5 -0.7,-1.1 -1.1,-1.7 -55.3,-91.099 -179.3,-110.798 -261.2,-42.701 l -137.2,114.101 c 25.8,-85.8 51.1,-199.902 57.4,-335.698 7.4,-160.5 -14.3,-295 -37.6,-391.403 108.5,33.403 224.3,93.403 318.9,149.403 123.1,72.796 227.7,172.898 307.7,291.597 0.8,1.301 1.6,2.5 2.4,3.602 -0.2,0.199 -0.5,0.301 -0.6,0.5 6.9,11.097 13.5,22.398 19.9,34 60.5,108.398 99.1,227.099 115.5,356.199 16.5,129.1 4.7,263 -35.4,401.7 -14.1,48.7 -30.7,94.9 -49.9,138.8 -77.6,-53.6 -163.9,-113.3 -255.8,-176.9 6.2,-16.5 11.9,-33.5 16.9,-50.9"
         style="fill:#0a131c;fill-opacity:1;fill-rule:nonzero;stroke:none"
         transform="matrix(0.13333333,0,0,-0.13333333,0,2103.8267)" />
      <path
         id="path25"
         d="m 22343,235.199 c -86.7,-60.097 -205.6,-38.5 -265.6,48.102 -60.1,86.699 -38.4,205.601 48.2,265.601 86.6,60 205.5,38.399 265.6,-48.203 60,-86.597 38.4,-205.597 -48.2,-265.5 z M 25120.1,2303.3 c -126.4,13.5 -252.9,2 -379.6,-34.6 -83.2,-24 -160.5,-57.2 -232,-99.4 -18.1,-10.7 -515.6,-354.1 -1023.8,-705.4 -34.7,-24 -69.4,-47.9 -104,-71.9 -125,-86.4 -248.6,-171.9 -364,-251.7 -39.5,-27.3 -78,-53.9 -115.3,-79.7 -94.4,-65.299 -180.7,-124.998 -254.5,-176.1 -43,-29.699 -81.8,-56.598 -115.4,-79.801 -44.1,-30.597 -79.4,-55 -103.7,-71.797 -126.8,71.899 -288.9,69.797 -416.7,-18.703 -177.9,-123.301 -222.3,-367.398 -99,-545.398 123.3,-177.90256 367.4,-222.1994 545.4,-99.0002 127,88.1012 186,237.8012 164.3,381.0002 30,20.801 77,53.398 137,95 35.7,24.801 76.1,52.801 120.2,83.398 86.5,59.903 187.4,129.903 296.3,205.403 47.1,32.597 95.7,66.296 145.3,100.699 591.1,409.799 1324.9,918.199 1337.7,925.799 53,31.9 110.6,56.8 172.8,74.7 87.4,25.3 174.3,34.2 260.9,26.8 8.2,-0.7 16.3,-1.6 24.4,-2.6 124.3,86.2 242.4,168.1 346.6,240.4 -105.4,55.3 -219.7,89.7 -342.9,102.9"
         style="fill:#0a131c;fill-opacity:1;fill-rule:nonzero;stroke:none"
         transform="matrix(0.13333333,0,0,-0.13333333,0,2103.8267)" />
      <path
         id="path26"
         d="m 26344.6,2198.9 c -86.6,-60 -205.5,-38.5 -265.5,48.2 -60.1,86.6 -38.4,205.5 48.2,265.5 86.6,60 205.5,38.5 265.6,-48.2 60,-86.6 38.4,-205.5 -48.3,-265.5 z m 213.5,380 c -123.2,177.9 -367.4,222.3 -545.3,99 -127.1,-88 -186,-237.7 -164.4,-380.9 -26.3,-18.3 -65.7,-45.6 -115.3,-80 v 0 l -580.5,-402.5 v 0 C 24561,1404.4 23824.8,894.301 23812,886.602 c -53.1,-31.801 -110.7,-56.7 -172.9,-74.602 -87.3,-25.301 -174.3,-34.301 -260.9,-26.801 -8.2,0.699 -16.3,1.602 -24.3,2.5 l -150.1,-104 -196.6,-136.297 c 105.4,-55.402 219.7,-89.703 342.9,-102.902 126.4,-13.602 252.9,-2.098 379.7,34.602 83.1,24 160.4,57.097 231.9,99.398 34.5,20.301 1798.6,1241.1 2080.8,1436.4 126.7,-71.9 288.8,-69.9 416.6,18.7 178,123.3 222.3,367.4 99,545.3"
         style="fill:#0a131c;fill-opacity:1;fill-rule:nonzero;stroke:none"
         transform="matrix(0.13333333,0,0,-0.13333333,0,2103.8267)" />
      <path
         id="path27"
         d="m 22837.1,1186.6 c -6.2,16.6 -11.9,33.5 -16.9,51 -25.7,89 -32.7,175.6 -20.9,259.8 11.9,84.2 38.8,161 80.9,230.7 0.3,0.6 0.6,1.2 1,1.7 55.4,91.1 179.3,110.9 261.2,42.7 l 137.3,-114.1 c -25.9,85.9 -51.2,200 -57.5,335.7 -7.4,160.5 14.3,295.1 37.6,391.4 -108.5,-33.3 -224.3,-93.4 -318.8,-149.3 -123.2,-72.9 -227.8,-173 -307.7,-291.7 -0.8,-1.2 -1.7,-2.4 -2.5,-3.6 0.2,-0.1 0.5,-0.3 0.7,-0.4 -6.9,-11.2 -13.6,-22.5 -20,-34 -60.5,-108.4 -99,-227.2 -115.5,-356.2 -16.5,-129.2 -4.7,-263.1 35.4,-401.8 14.1,-48.6 30.8,-94.8 50,-138.8 l 240.2,166.2 c 5.2,3.6 10.3,7.2 15.5,10.7"
         style="fill:#0a131c;fill-opacity:1;fill-rule:nonzero;stroke:none"
         transform="matrix(0.13333333,0,0,-0.13333333,0,2103.8267)" />
      <path
         id="path28"
         d="m 25152.6,1814.5 580.5,402.5 v 0 c -135.1,-93.7 -346.5,-240.3 -580.5,-402.5 v 0"
         style="fill:#0a131c;fill-opacity:1;fill-rule:nonzero;stroke:none"
         transform="matrix(0.13333333,0,0,-0.13333333,0,2103.8267)" />
    </g>
  </g>
</svg>

